# xmcd CD database file
#
# Track frame offsets:
#	150
#	16980
#	35678
#	53601
#	71350
#	88373
#	105847
#	122469
#	139763
#	153914
#	170236
#	186422
#	199213
#	214392
#
# Disc length: 3098 seconds
#
# Revision: 0
# Processed by: cddbd v1.5.1PL0 Copyright (c) Steve Scherf et al.
# Submitted via: CDex 1.50
#
DISCID=c60c180e
DTITLE=Various Artist - Hitz 2005 Country Vol. 3
DYEAR=2005
DGENRE=Country
TTITLE0=Lot Of Leavin' Left To Do - Dierks Bentley
TTITLE1=Don't Ask Me How I Know - Bobby Pinson
TTITLE2=Big Time - Big and Rich
TTITLE3=If Something Should Happen - Darryl Worley
TTITLE4=I See Me - Travis Tritt
TTITLE5=Waitin' On The Wonderful - Aaron Lines
TTITLE6=Baby Doll - Pat Green 
TTITLE7=Something Like A Broken Heart - Hanna-McEuen
TTITLE8=Tiny Town - Shelly Fairchild
TTITLE9=I'll Try Anything - Amber Dotson
TTITLE10=Go Easy On Me - Lila McCann
TTITLE11=The Good Life - Trent Willmon 
TTITLE12=Hillbillies - Hot Apple Pie
TTITLE13=My Sister - Reba McEntire
EXTD=YEAR: 2005
EXTT0=
EXTT1=
EXTT2=
EXTT3=
EXTT4=
EXTT5=
EXTT6=
EXTT7=
EXTT8=
EXTT9=
EXTT10=
EXTT11=
EXTT12=
EXTT13=
PLAYORDER=
